<svg width="91" height="99" viewBox="0 0 91 99" fill="none" xmlns="http://www.w3.org/2000/svg">
<path d="M0.426758 21.7287L49.4238 0L50.8853 3.29556L1.88824 25.0243L0.426758 21.7287Z" fill="#3077F7"/>
<path d="M11.3996 20.2437L39.9166 7.59726L44.1316 17.1019C44.1316 17.1019 37.8395 15.6309 28.6302 19.5697C20.2843 23.1393 15.6146 29.7483 15.6146 29.7483L11.3996 20.2437Z" fill="#3077F7"/>
<path d="M5.03141 23.0232H6.75815V35.3982L7.62152 37.9884H4.16804L5.03141 35.3982V23.0232Z" fill="#3077F7"/>
<path d="M7.90931 33.6715C7.90931 34.7841 7.00738 35.686 5.89478 35.686C4.78218 35.686 3.88025 34.7841 3.88025 33.6715C3.88025 32.5589 4.78218 31.657 5.89478 31.657C7.00738 31.657 7.90931 32.5589 7.90931 33.6715Z" fill="#3077F7"/>
<path d="M53.957 59.2849H66.6198V86.5181L53.957 99V59.2849Z" fill="#162C97"/>
<path d="M64.0297 49.5H90.5065L80.7216 59.2849H53.957L64.0297 49.5Z" fill="#162C97"/>
<path d="M66.4568 31.4431C63.3704 27.2404 59.2583 23.899 54.5131 21.7379C49.7679 19.5767 44.5479 18.6679 39.3515 19.0982C34.1551 19.5285 29.1558 21.2836 24.8307 24.1959C20.5056 27.1081 16.9992 31.0804 14.6462 35.7335C12.2931 40.3865 11.172 45.5651 11.3899 50.7747C11.6078 55.9843 13.1574 61.0512 15.8907 65.4915C18.6241 69.9318 22.4499 73.5974 27.0031 76.1384C31.5562 78.6794 36.6847 80.0108 41.8989 80.0058L41.886 66.7656C38.9348 66.7684 36.0323 66.0148 33.4553 64.5767C30.8783 63.1386 28.7129 61.0639 27.1659 58.5508C25.6189 56.0377 24.7419 53.17 24.6186 50.2214C24.4953 47.2729 25.1298 44.342 26.4615 41.7084C27.7933 39.0749 29.7778 36.8267 32.2257 35.1784C34.6736 33.5301 37.5032 32.5368 40.4442 32.2933C43.3853 32.0497 46.3396 32.5641 49.0253 33.7872C51.711 35.0104 54.0383 36.9016 55.7852 39.2802L66.4568 31.4431Z" fill="#58C7FC"/>
<path d="M41.8691 58.7093H51.0784V80.0058H41.8691V58.7093Z" fill="#58C7FC"/>
<path d="M41.8691 49.5H59.9999L50.5028 59.2848H32.372L41.8691 49.5Z" fill="#58C7FC"/>
<path d="M59.4243 29.3546L74.1017 25.9011L58.2732 42.0174L53.0929 36.2616L59.4243 29.3546Z" fill="#58C7FC"/>
</svg>
