<svg width="138" height="151" viewBox="0 0 138 151" fill="none" xmlns="http://www.w3.org/2000/svg">
<path d="M0.426758 33.0822L75.0252 0L77.2503 5.01752L2.65188 38.0998L0.426758 33.0822Z" fill="#3077F7"/>
<path d="M17.1331 30.8212L60.5504 11.5669L66.9678 26.0378C66.9678 26.0378 57.3881 23.7983 43.3669 29.7951C30.6601 35.2298 23.5504 45.2921 23.5504 45.2921L17.1331 30.8212Z" fill="#3077F7"/>
<path d="M7.43739 35.0531H10.0664V53.8942L11.3809 57.8377H6.12289L7.43739 53.8942V35.0531Z" fill="#3077F7"/>
<path d="M11.819 51.2652C11.819 52.9591 10.4458 54.3323 8.75188 54.3323C7.05794 54.3323 5.68473 52.9591 5.68473 51.2652C5.68473 49.5713 7.05794 48.198 8.75188 48.198C10.4458 48.198 11.819 49.5713 11.819 51.2652Z" fill="#3077F7"/>
<path d="M81.9268 90.2618H101.206V131.725L81.9268 150.729V90.2618Z" fill="#162C97"/>
<path d="M97.2625 75.3643H137.574L122.676 90.2618H81.9268L97.2625 75.3643Z" fill="#162C97"/>
<path d="M100.959 47.8725C96.2595 41.474 89.9988 36.3867 82.7742 33.0963C75.5496 29.8059 67.6021 28.4222 59.6905 29.0774C51.779 29.7325 44.1674 32.4047 37.5824 36.8386C30.9974 41.2726 25.6588 47.3204 22.0763 54.4048C18.4938 61.4891 16.787 69.3735 17.1187 77.3052C17.4504 85.2369 19.8097 92.9512 23.9712 99.7116C28.1328 106.472 33.9577 112.053 40.8899 115.922C47.8221 119.79 55.6303 121.818 63.5689 121.81L63.5492 101.651C59.0561 101.656 54.6369 100.508 50.7134 98.3189C46.7899 96.1293 43.4932 92.9706 41.1378 89.1444C38.7825 85.3181 37.4472 80.952 37.2594 76.4628C37.0717 71.9737 38.0377 67.5113 40.0654 63.5017C42.093 59.4921 45.1145 56.0692 48.8414 53.5597C52.5684 51.0501 56.8764 49.5378 61.3541 49.167C65.8319 48.7962 70.33 49.5793 74.419 51.4416C78.508 53.3039 82.0514 56.1832 84.7109 59.8046L100.959 47.8725Z" fill="#58C7FC"/>
<path d="M63.5235 89.3856H77.5448V121.81H63.5235V89.3856Z" fill="#58C7FC"/>
<path d="M63.5235 75.3644H91.1279L76.6685 90.262H49.0641L63.5235 75.3644Z" fill="#58C7FC"/>
<path d="M90.2516 44.6929L112.598 39.4349L88.4989 63.9721L80.612 55.2088L90.2516 44.6929Z" fill="#58C7FC"/>
</svg>
