<svg width="512" height="200" viewBox="0 0 512 200" fill="none" xmlns="http://www.w3.org/2000/svg">
<path d="M246.892 85.7119C246.892 86.4752 246.732 87.0293 246.412 87.374C246.091 87.7187 245.587 87.8911 244.897 87.8911C244.232 87.8911 243.481 87.6818 242.644 87.2632C241.832 86.8446 240.97 86.3521 240.059 85.7858C239.172 85.2194 238.323 84.7269 237.51 84.3083C236.697 83.8651 235.996 83.6435 235.405 83.6435C234.912 83.6435 234.334 83.8651 233.669 84.3083C233.029 84.7269 232.228 85.2071 231.268 85.7488C230.332 86.2905 229.2 86.7707 227.87 87.1893C226.565 87.6325 224.989 87.8541 223.142 87.8541C219.35 87.8541 215.927 87.2386 212.874 86.0074C209.845 84.7762 207.247 83.0033 205.081 80.6886C202.938 78.374 201.288 75.6161 200.131 72.415C198.998 69.1893 198.432 65.5696 198.432 61.5559C198.432 57.5176 199.097 53.8117 200.427 50.4383C201.756 47.0402 203.628 44.0976 206.041 41.6106C208.454 39.1236 211.31 37.203 214.61 35.8487C217.91 34.4697 221.529 33.7803 225.469 33.7803C227.661 33.7803 229.458 33.9896 230.862 34.4082C232.265 34.8022 233.386 35.2208 234.223 35.664C235.085 36.0826 235.774 36.2919 236.291 36.2919C236.956 36.2919 237.621 36.0949 238.286 35.7009C238.951 35.2823 239.615 34.876 240.28 34.482C240.97 34.0634 241.635 33.8541 242.275 33.8541C242.693 33.8541 243.038 34.0019 243.309 34.2974C243.58 34.5682 243.814 35.073 244.011 35.8117L247.409 50.8446C247.557 51.4109 247.495 51.9034 247.224 52.322C246.978 52.716 246.596 52.9868 246.079 53.1346C245.537 53.2577 245.033 53.2208 244.565 53.0238C244.122 52.8022 243.752 52.3959 243.457 51.8049C241.93 48.1852 240.28 45.3535 238.507 43.3097C236.734 41.2413 234.912 39.7885 233.041 38.9513C231.169 38.1141 229.286 37.6955 227.39 37.6955C224.853 37.6955 222.674 38.5204 220.852 40.1702C219.055 41.7953 217.676 44.1838 216.715 47.3357C215.755 50.4875 215.275 54.3535 215.275 58.9335C215.275 64.006 215.841 68.2659 216.974 71.7132C218.131 75.1606 219.682 77.7707 221.628 79.5436C223.598 81.2919 225.752 82.1661 228.091 82.1661C228.707 82.1661 229.261 82.0552 229.754 81.8336C230.246 81.612 230.665 81.3165 231.009 80.9472C231.354 80.5778 231.613 80.1346 231.785 79.6175C231.982 79.1004 232.081 78.5464 232.081 77.9554V67.0593C232.081 66.6407 231.945 66.3083 231.674 66.0621C231.428 65.8158 230.96 65.6189 230.271 65.4711L228.202 65.0279C227.636 64.8555 227.193 64.6339 226.873 64.363C226.577 64.0922 226.429 63.7351 226.429 63.2919C226.429 62.7994 226.602 62.4054 226.946 62.11C227.316 61.8145 227.87 61.6667 228.609 61.6667H248.554C249.317 61.6667 249.871 61.8145 250.216 62.11C250.561 62.4054 250.733 62.7871 250.733 63.255C250.733 63.6736 250.61 64.0183 250.364 64.2892C250.142 64.5354 249.797 64.757 249.33 64.954L248.295 65.2864C247.852 65.4588 247.507 65.6804 247.261 65.9513C247.015 66.1975 246.892 66.5669 246.892 67.0593V85.7119Z" fill="#58C7FC"/>
<path d="M270.962 66.5792C270.962 63.0826 271.454 60.1893 272.439 57.8993C273.424 55.5847 274.705 53.861 276.28 52.7283C277.881 51.5956 279.605 51.0292 281.451 51.0292C283.84 51.0292 285.662 51.768 286.918 53.2454C288.198 54.7228 288.839 56.9513 288.839 59.9308C288.839 62.9595 288.198 65.1879 286.918 66.6161C285.638 68.0443 284 68.7584 282.005 68.7584C280.036 68.7584 278.57 68.2536 277.61 67.244C276.674 66.2098 276.182 64.7693 276.133 62.9225L276.096 61.4082C276.071 60.8172 275.936 60.3494 275.689 60.0046C275.468 59.6599 275.099 59.4875 274.581 59.4875C274.089 59.4875 273.658 59.7215 273.289 60.1893C272.919 60.6325 272.624 61.3589 272.402 62.3685C272.205 63.3781 272.107 64.7078 272.107 66.3576L270.962 66.5792ZM271.442 53.4301L272.107 62.5163V80.7994C272.107 81.4643 272.205 81.9567 272.402 82.2769C272.624 82.597 273.067 82.8309 273.732 82.9786L276.871 83.6065C277.389 83.705 277.758 83.8774 277.979 84.1236C278.226 84.3699 278.349 84.7146 278.349 85.1578C278.349 85.6503 278.176 86.032 277.832 86.3029C277.512 86.5491 277.031 86.6722 276.391 86.6722H256.077C255.387 86.6722 254.895 86.5368 254.599 86.2659C254.304 85.9951 254.156 85.638 254.156 85.1948C254.156 84.85 254.242 84.5546 254.415 84.3083C254.612 84.0375 254.919 83.8158 255.338 83.6435L256.335 83.3111C256.705 83.1879 256.951 82.9663 257.074 82.6462C257.222 82.3015 257.295 81.7598 257.295 81.021V60.2262C257.295 59.6599 257.209 59.2536 257.037 59.0074C256.889 58.7365 256.643 58.5641 256.298 58.4903L255.153 58.3056C254.808 58.2071 254.55 58.047 254.378 57.8254C254.205 57.6038 254.119 57.3206 254.119 56.9759C254.119 56.5819 254.23 56.2618 254.451 56.0156C254.698 55.7693 255.116 55.5354 255.707 55.3138L265.938 52.2112C267.12 51.7433 267.97 51.4479 268.487 51.3247C269.004 51.2016 269.423 51.1401 269.743 51.1401C270.26 51.1401 270.642 51.3247 270.888 51.6941C271.159 52.0388 271.343 52.6175 271.442 53.4301Z" fill="#58C7FC"/>
<path d="M311.512 51.0292C315.452 51.0292 318.899 51.8049 321.854 53.3562C324.809 54.9075 327.111 57.0744 328.761 59.8569C330.435 62.6147 331.273 65.8158 331.273 69.4602C331.273 72.9075 330.398 75.9978 328.65 78.731C326.926 81.4643 324.538 83.6312 321.485 85.2317C318.431 86.8076 314.91 87.5956 310.921 87.5956C306.981 87.5956 303.521 86.82 300.542 85.2687C297.587 83.7174 295.273 81.5751 293.598 78.8418C291.948 76.084 291.123 72.8952 291.123 69.2755C291.123 65.8035 291.998 62.7009 293.746 59.9677C295.494 57.2098 297.895 55.0306 300.948 53.4301C304.002 51.8295 307.523 51.0292 311.512 51.0292ZM313.987 83.9759C314.898 83.8035 315.587 83.1387 316.055 81.9814C316.523 80.8241 316.732 79.1373 316.683 76.9212C316.658 74.6804 316.326 71.861 315.686 68.4629C315.095 65.1633 314.418 62.467 313.654 60.374C312.915 58.2563 312.103 56.7297 311.216 55.794C310.355 54.8583 309.444 54.4889 308.483 54.6859C307.572 54.8829 306.883 55.56 306.415 56.7173C305.947 57.8747 305.738 59.5614 305.787 61.7775C305.861 63.9691 306.193 66.7762 306.784 70.1989C307.4 73.4985 308.077 76.2071 308.816 78.3247C309.554 80.4178 310.355 81.9321 311.216 82.8678C312.103 83.8035 313.026 84.1729 313.987 83.9759Z" fill="#58C7FC"/>
<path d="M353.964 86.6722H348.35C347.586 86.6722 346.934 86.4998 346.392 86.1551C345.875 85.8104 345.456 85.2194 345.136 84.3822L335.496 57.2714C335.25 56.5819 335.016 56.1141 334.794 55.8678C334.597 55.6216 334.363 55.4492 334.092 55.3507L333.058 54.9814C332.689 54.809 332.418 54.612 332.246 54.3904C332.098 54.1688 332.024 53.8733 332.024 53.5039C332.024 53.0361 332.184 52.679 332.504 52.4328C332.849 52.1619 333.292 52.0265 333.834 52.0265H352.93C353.471 52.0265 353.902 52.1619 354.222 52.4328C354.567 52.679 354.739 53.0361 354.739 53.5039C354.739 53.8733 354.629 54.1688 354.407 54.3904C354.21 54.612 353.89 54.7967 353.447 54.9444L352.154 55.2399C351.612 55.3877 351.28 55.7078 351.157 56.2002C351.058 56.6927 351.218 57.5546 351.637 58.7857L357.879 77.4752L354.407 82.2399L362.644 58.4164L365.783 60.2632L357.14 84.6407C356.82 85.4287 356.377 85.9704 355.811 86.2659C355.244 86.5368 354.629 86.6722 353.964 86.6722ZM378.083 86.6722H372.579C371.841 86.6722 371.188 86.4998 370.622 86.1551C370.08 85.8104 369.674 85.2194 369.403 84.3822L360.132 57.2714C359.861 56.5327 359.615 56.0402 359.393 55.794C359.196 55.5477 358.987 55.3754 358.765 55.2769L357.99 54.9814C357.62 54.809 357.35 54.612 357.177 54.3904C357.029 54.1688 356.956 53.8733 356.956 53.5039C356.956 52.519 357.559 52.0265 358.765 52.0265H377.566C378.772 52.0265 379.376 52.519 379.376 53.5039C379.376 53.8733 379.277 54.1811 379.08 54.4273C378.883 54.6489 378.6 54.809 378.23 54.9075L376.495 55.2399C375.83 55.3877 375.448 55.7078 375.35 56.2002C375.251 56.6927 375.399 57.5422 375.793 58.7488L381.739 77.5122L378.489 82.2399L385.285 60.0416C385.802 58.4656 385.975 57.3206 385.802 56.6065C385.655 55.8678 385.236 55.4123 384.547 55.2399L383.365 54.9444C382.921 54.7967 382.589 54.612 382.367 54.3904C382.17 54.1688 382.072 53.8733 382.072 53.5039C382.072 53.0361 382.232 52.679 382.552 52.4328C382.897 52.1619 383.34 52.0265 383.882 52.0265H392.266C392.832 52.0265 393.276 52.1619 393.596 52.4328C393.916 52.679 394.076 53.0361 394.076 53.5039C394.076 53.8241 393.99 54.1072 393.817 54.3535C393.67 54.5997 393.362 54.7967 392.894 54.9444L392.155 55.2399C391.638 55.4369 391.146 55.9048 390.678 56.6435C390.235 57.3576 389.779 58.4287 389.311 59.8569L381.222 84.6407C380.976 85.4287 380.545 85.9704 379.93 86.2659C379.339 86.5368 378.723 86.6722 378.083 86.6722Z" fill="#58C7FC"/>
<path d="M207.851 110.999H236.439C237.301 110.999 238.027 110.9 238.618 110.703C239.234 110.506 239.775 110.322 240.243 110.149C240.736 109.952 241.191 109.854 241.61 109.854C242.25 109.854 242.743 110.026 243.087 110.371C243.432 110.716 243.715 111.319 243.937 112.181L246.301 125.515C246.424 126.106 246.387 126.586 246.19 126.955C245.993 127.325 245.648 127.558 245.156 127.657C244.713 127.755 244.306 127.719 243.937 127.546C243.592 127.374 243.284 127.041 243.014 126.549C241.462 123.151 240.096 120.578 238.914 118.829C237.732 117.056 236.611 115.85 235.552 115.21C234.494 114.569 233.373 114.249 232.191 114.249H229.089V157.427C229.089 157.895 229.236 158.277 229.532 158.572C229.852 158.843 230.295 159.065 230.862 159.237L232.893 159.717C233.755 159.988 234.186 160.505 234.186 161.268C234.186 162.229 233.57 162.709 232.339 162.709H212.024C211.384 162.709 210.916 162.586 210.621 162.34C210.325 162.069 210.178 161.712 210.178 161.268C210.178 160.505 210.609 159.988 211.47 159.717L213.502 159.237C214.093 159.065 214.524 158.843 214.795 158.572C215.09 158.277 215.238 157.895 215.238 157.427V114.249H212.172C211.015 114.249 209.907 114.594 208.848 115.284C207.814 115.948 206.693 117.167 205.487 118.94C204.28 120.688 202.889 123.225 201.313 126.549C201.067 127.041 200.759 127.374 200.39 127.546C200.045 127.719 199.651 127.755 199.208 127.657C198.715 127.558 198.371 127.325 198.174 126.955C197.977 126.586 197.927 126.106 198.026 125.515L200.427 112.181C200.624 111.319 200.894 110.716 201.239 110.371C201.584 110.026 202.089 109.854 202.754 109.854C203.172 109.854 203.603 109.952 204.046 110.149C204.514 110.322 205.056 110.506 205.672 110.703C206.287 110.9 207.013 110.999 207.851 110.999Z" fill="#162C97"/>
<path d="M264.86 127.472C268.628 127.472 271.94 128.236 274.796 129.762C277.652 131.289 279.881 133.419 281.481 136.152C283.107 138.885 283.919 142.05 283.919 145.645C283.919 149.067 283.082 152.133 281.408 154.842C279.733 157.55 277.431 159.693 274.501 161.268C271.595 162.82 268.222 163.595 264.38 163.595C260.613 163.595 257.301 162.832 254.445 161.305C251.588 159.754 249.36 157.624 247.759 154.916C246.159 152.207 245.358 149.067 245.358 145.497C245.358 142.025 246.183 138.935 247.833 136.226C249.507 133.517 251.81 131.387 254.74 129.836C257.67 128.26 261.044 127.472 264.86 127.472ZM267.261 160.456C268.542 160.234 269.551 159.52 270.29 158.314C271.029 157.082 271.46 155.322 271.583 153.032C271.706 150.742 271.484 147.91 270.918 144.537C270.352 141.212 269.625 138.491 268.739 136.374C267.877 134.232 266.867 132.693 265.71 131.757C264.577 130.797 263.346 130.427 262.016 130.649C260.736 130.846 259.726 131.56 258.988 132.791C258.274 134.022 257.855 135.783 257.732 138.073C257.633 140.338 257.867 143.158 258.434 146.531C258.975 149.831 259.689 152.552 260.576 154.694C261.462 156.836 262.472 158.387 263.605 159.348C264.737 160.284 265.956 160.653 267.261 160.456Z" fill="#162C97"/>
<path d="M311.787 158.978C315.529 159.446 318.497 160.099 320.688 160.936C322.88 161.749 324.443 162.795 325.379 164.076C326.339 165.381 326.819 166.994 326.819 168.914C326.819 172.411 324.997 175.267 321.353 177.483C317.733 179.699 312.513 180.807 305.692 180.807C301.112 180.807 297.468 180.475 294.759 179.81C292.075 179.145 290.155 178.222 288.997 177.04C287.84 175.858 287.261 174.491 287.261 172.94C287.261 171.019 288.123 169.407 289.847 168.102C291.57 166.821 294.624 165.935 299.007 165.442L299.302 166.292C298.317 166.538 297.554 166.994 297.012 167.658C296.495 168.348 296.237 169.099 296.237 169.911C296.237 172.325 297.086 174.245 298.785 175.673C300.509 177.126 303.328 177.853 307.244 177.853C309.435 177.853 311.196 177.68 312.525 177.336C313.88 176.991 314.852 176.461 315.443 175.747C316.059 175.033 316.367 174.159 316.367 173.125C316.367 172.238 316.034 171.475 315.369 170.835C314.705 170.219 313.56 169.665 311.934 169.173C310.309 168.705 308.019 168.262 305.064 167.843C301.617 167.326 298.945 166.76 297.049 166.144C295.153 165.528 293.824 164.777 293.06 163.891C292.322 163.004 291.952 161.921 291.952 160.641C291.952 159.434 292.285 158.326 292.949 157.316C293.639 156.307 294.772 155.47 296.348 154.805C297.948 154.115 300.127 153.672 302.885 153.475L303.254 153.992C302.737 154.189 302.331 154.435 302.036 154.731C301.765 155.026 301.629 155.359 301.629 155.728C301.629 156.122 301.826 156.479 302.22 156.799C302.639 157.119 303.562 157.452 304.99 157.797C306.419 158.141 308.684 158.535 311.787 158.978ZM312.008 130.538L312.932 128.433C314.089 125.699 315.529 123.606 317.253 122.154C318.977 120.701 320.91 119.974 323.052 119.974C324.825 119.974 326.229 120.479 327.263 121.489C328.297 122.474 328.814 123.828 328.814 125.552C328.814 127.078 328.432 128.297 327.669 129.208C326.906 130.119 325.859 130.575 324.529 130.575C323.643 130.575 322.941 130.366 322.424 129.947C321.907 129.528 321.451 129.048 321.058 128.506C320.664 127.94 320.233 127.448 319.765 127.029C319.322 126.61 318.731 126.401 317.992 126.401C317.179 126.401 316.49 126.721 315.923 127.361C315.382 127.977 314.766 129.073 314.077 130.649L312.008 130.538ZM324.012 140.511C324.012 143.244 323.261 145.669 321.759 147.787C320.257 149.88 318.14 151.53 315.406 152.736C312.698 153.918 309.534 154.509 305.914 154.509C302.27 154.509 299.13 153.943 296.495 152.81C293.885 151.653 291.878 150.102 290.475 148.156C289.096 146.211 288.406 144.056 288.406 141.693C288.406 138.935 289.157 136.497 290.659 134.379C292.161 132.237 294.291 130.563 297.049 129.356C299.807 128.149 303.07 127.546 306.837 127.546C310.482 127.546 313.572 128.137 316.108 129.319C318.669 130.476 320.627 132.04 321.981 134.01C323.335 135.955 324.012 138.122 324.012 140.511ZM304.584 130.242C303.575 130.341 302.75 130.833 302.109 131.72C301.494 132.582 301.1 133.825 300.928 135.45C300.755 137.051 300.829 138.996 301.149 141.286C301.469 143.601 301.937 145.558 302.553 147.159C303.193 148.735 303.944 149.905 304.806 150.668C305.692 151.431 306.665 151.764 307.724 151.665C309.25 151.493 310.322 150.471 310.937 148.6C311.577 146.728 311.651 144.069 311.159 140.621C310.666 137.1 309.841 134.453 308.684 132.68C307.551 130.883 306.185 130.07 304.584 130.242Z" fill="#162C97"/>
<path d="M363.822 141.84C363.822 142.874 363.527 143.687 362.936 144.278C362.345 144.844 361.495 145.128 360.387 145.128H337.709V142.727H350.119C351.104 142.727 351.596 142.259 351.596 141.323C351.596 137.605 351.104 134.884 350.119 133.16C349.134 131.412 347.903 130.538 346.425 130.538C345.293 130.538 344.283 130.944 343.397 131.757C342.51 132.545 341.808 133.764 341.291 135.413C340.799 137.039 340.553 139.119 340.553 141.656C340.553 146.433 341.599 149.978 343.692 152.293C345.81 154.608 348.642 155.765 352.187 155.765C354.354 155.765 356.226 155.31 357.802 154.398C359.378 153.487 360.535 152.17 361.274 150.446C361.643 150.052 361.938 149.794 362.16 149.671C362.382 149.523 362.591 149.449 362.788 149.449C363.083 149.449 363.305 149.597 363.453 149.892C363.601 150.163 363.674 150.508 363.674 150.926C363.625 153.241 362.899 155.359 361.495 157.279C360.092 159.2 358.183 160.739 355.77 161.896C353.382 163.029 350.624 163.595 347.497 163.595C344 163.595 340.885 162.881 338.152 161.453C335.443 160 333.313 157.981 331.762 155.396C330.211 152.786 329.435 149.745 329.435 146.273C329.435 142.505 330.174 139.218 331.651 136.411C333.129 133.579 335.259 131.375 338.041 129.799C340.823 128.223 344.148 127.435 348.014 127.435C351.362 127.435 354.207 128.063 356.546 129.319C358.91 130.55 360.707 132.249 361.938 134.416C363.194 136.583 363.822 139.058 363.822 141.84Z" fill="#162C97"/>
<path d="M369.449 131.498L367.455 130.907C367.036 130.76 366.728 130.587 366.531 130.39C366.359 130.169 366.273 129.91 366.273 129.615C366.273 129.221 366.408 128.913 366.679 128.691C366.974 128.47 367.344 128.359 367.787 128.359H370.262C370.656 128.359 370.988 128.285 371.259 128.137C371.554 127.965 371.899 127.657 372.293 127.214L378.757 120.824C379.225 120.331 379.68 119.962 380.123 119.716C380.567 119.445 380.985 119.31 381.379 119.31C381.822 119.31 382.167 119.457 382.413 119.753C382.684 120.048 382.82 120.479 382.82 121.045V151.591C382.82 153.487 383.164 154.916 383.854 155.876C384.543 156.836 385.516 157.316 386.772 157.316C387.511 157.316 388.114 157.156 388.582 156.836C389.05 156.516 389.444 156.134 389.764 155.691C390.084 155.223 390.392 154.768 390.687 154.325C391.007 153.857 391.364 153.463 391.758 153.143C392.054 153.093 392.3 153.167 392.497 153.364C392.694 153.537 392.792 153.881 392.792 154.398C392.645 156.196 392.091 157.784 391.13 159.163C390.195 160.517 388.902 161.589 387.252 162.377C385.627 163.14 383.719 163.522 381.527 163.522C378.08 163.522 375.408 162.697 373.512 161.047C371.616 159.372 370.668 156.824 370.668 153.401V133.197C370.668 132.68 370.569 132.311 370.372 132.089C370.2 131.843 369.892 131.646 369.449 131.498ZM378.609 131.461L378.757 128.359H391.093C391.586 128.359 391.955 128.457 392.201 128.654C392.472 128.827 392.608 129.11 392.608 129.504C392.608 130.045 392.325 130.513 391.758 130.907C391.216 131.277 390.33 131.461 389.099 131.461H378.609Z" fill="#162C97"/>
<path d="M411.545 109.337V157.575C411.545 158.264 411.632 158.769 411.804 159.089C411.976 159.409 412.247 159.631 412.616 159.754L413.909 160.123C414.5 160.394 414.796 160.801 414.796 161.342C414.796 162.253 414.242 162.709 413.134 162.709H397.399C396.833 162.709 396.414 162.598 396.143 162.377C395.872 162.13 395.737 161.81 395.737 161.416C395.737 161.121 395.823 160.862 395.995 160.641C396.168 160.419 396.451 160.247 396.845 160.123L398.175 159.754C398.569 159.631 398.839 159.409 398.987 159.089C399.16 158.769 399.246 158.264 399.246 157.575V115.468C399.246 114.976 399.16 114.619 398.987 114.397C398.839 114.151 398.593 114.003 398.249 113.954L396.66 113.806C396.316 113.732 396.057 113.597 395.885 113.4C395.737 113.203 395.663 112.957 395.663 112.661C395.663 112.316 395.762 112.045 395.958 111.848C396.155 111.651 396.525 111.455 397.067 111.258L406.337 108.192C407.125 107.896 407.753 107.687 408.221 107.564C408.689 107.441 409.132 107.379 409.551 107.379C410.216 107.379 410.708 107.564 411.028 107.933C411.373 108.303 411.545 108.771 411.545 109.337ZM410.437 137.814L409.034 136.337L410.363 135.155C413.368 132.422 415.953 130.464 418.12 129.282C420.311 128.076 422.343 127.472 424.214 127.472C426.997 127.472 429.164 128.383 430.715 130.206C432.291 132.028 433.239 134.552 433.559 137.777L435.738 157.501C435.812 158.215 435.911 158.745 436.034 159.089C436.181 159.409 436.452 159.631 436.846 159.754L438.102 160.123C438.496 160.271 438.767 160.456 438.915 160.677C439.087 160.874 439.173 161.121 439.173 161.416C439.173 161.81 439.038 162.13 438.767 162.377C438.521 162.598 438.114 162.709 437.548 162.709H421.592C420.459 162.709 419.893 162.253 419.893 161.342C419.893 160.801 420.201 160.394 420.816 160.123L422.146 159.754C422.54 159.631 422.835 159.409 423.032 159.089C423.229 158.745 423.291 158.215 423.217 157.501L421.37 139.366C421.173 137.617 420.742 136.312 420.077 135.45C419.437 134.589 418.44 134.158 417.086 134.158C416.248 134.158 415.387 134.367 414.5 134.786C413.614 135.204 412.715 135.807 411.804 136.595L410.437 137.814Z" fill="#162C97"/>
<path d="M475.495 141.84C475.495 142.874 475.199 143.687 474.608 144.278C474.018 144.844 473.168 145.128 472.06 145.128H449.381V142.727H461.792C462.777 142.727 463.269 142.259 463.269 141.323C463.269 137.605 462.777 134.884 461.792 133.16C460.807 131.412 459.576 130.538 458.098 130.538C456.966 130.538 455.956 130.944 455.069 131.757C454.183 132.545 453.481 133.764 452.964 135.413C452.472 137.039 452.225 139.119 452.225 141.656C452.225 146.433 453.272 149.978 455.365 152.293C457.483 154.608 460.314 155.765 463.86 155.765C466.027 155.765 467.898 155.31 469.474 154.398C471.05 153.487 472.208 152.17 472.946 150.446C473.316 150.052 473.611 149.794 473.833 149.671C474.054 149.523 474.264 149.449 474.461 149.449C474.756 149.449 474.978 149.597 475.126 149.892C475.273 150.163 475.347 150.508 475.347 150.926C475.298 153.241 474.572 155.359 473.168 157.279C471.764 159.2 469.856 160.739 467.443 161.896C465.054 163.029 462.297 163.595 459.169 163.595C455.673 163.595 452.558 162.881 449.825 161.453C447.116 160 444.986 157.981 443.435 155.396C441.883 152.786 441.108 149.745 441.108 146.273C441.108 142.505 441.846 139.218 443.324 136.411C444.801 133.579 446.931 131.375 449.714 129.799C452.496 128.223 455.821 127.435 459.686 127.435C463.035 127.435 465.879 128.063 468.219 129.319C470.582 130.55 472.38 132.249 473.611 134.416C474.867 136.583 475.495 139.058 475.495 141.84Z" fill="#162C97"/>
<path d="M494.049 143.096C494.049 139.624 494.542 136.731 495.527 134.416C496.512 132.077 497.792 130.341 499.368 129.208C500.969 128.051 502.668 127.472 504.465 127.472C506.755 127.472 508.504 128.162 509.71 129.541C510.941 130.895 511.557 132.902 511.557 135.561C511.557 138.122 511.015 140.018 509.932 141.249C508.848 142.456 507.457 143.059 505.758 143.059C504.084 143.059 502.828 142.616 501.991 141.729C501.178 140.843 500.759 139.6 500.735 137.999L500.698 136.595C500.673 135.906 500.513 135.389 500.218 135.044C499.947 134.675 499.491 134.49 498.851 134.49C498.186 134.49 497.571 134.786 497.004 135.377C496.438 135.968 495.982 136.891 495.638 138.147C495.293 139.378 495.12 140.978 495.12 142.948L494.049 143.096ZM494.603 129.615L495.12 139.033V157.464C495.12 158.08 495.231 158.548 495.453 158.868C495.675 159.163 496.093 159.36 496.709 159.459L499.959 160.05C500.427 160.148 500.759 160.308 500.956 160.53C501.178 160.727 501.289 161.022 501.289 161.416C501.289 161.81 501.141 162.13 500.846 162.377C500.575 162.598 500.156 162.709 499.59 162.709H480.974C480.408 162.709 479.989 162.598 479.718 162.377C479.447 162.13 479.312 161.81 479.312 161.416C479.312 161.121 479.398 160.862 479.571 160.641C479.743 160.419 480.026 160.247 480.42 160.123L481.75 159.754C482.119 159.631 482.378 159.422 482.525 159.126C482.698 158.806 482.784 158.314 482.784 157.649V135.598C482.784 135.081 482.71 134.712 482.562 134.49C482.415 134.244 482.168 134.096 481.824 134.047L480.198 133.899C479.854 133.825 479.595 133.69 479.423 133.493C479.275 133.296 479.201 133.05 479.201 132.754C479.201 132.409 479.3 132.139 479.497 131.942C479.718 131.72 480.088 131.511 480.605 131.314L489.802 128.506C490.811 128.137 491.538 127.903 491.981 127.805C492.449 127.682 492.83 127.62 493.126 127.62C493.569 127.62 493.902 127.78 494.123 128.1C494.345 128.396 494.505 128.9 494.603 129.615Z" fill="#162C97"/>
<path d="M0 43.8964L98.9839 0L101.936 6.6577L2.95249 50.5541L0 43.8964Z" fill="#3077F7"/>
<path d="M22.1674 40.8964L79.7774 15.348L88.2926 34.5492C88.2926 34.5492 75.5814 31.5777 56.9767 39.5348C40.1163 46.746 30.6826 60.0976 30.6826 60.0976L22.1674 40.8964Z" fill="#3077F7"/>
<path d="M9.30233 46.5116H12.7907V71.5116L14.5349 76.7441H7.55814L9.30233 71.5116V46.5116Z" fill="#3077F7"/>
<path d="M15.1163 68.0232C15.1163 70.2709 13.2942 72.093 11.0465 72.093C8.79884 72.093 6.97674 70.2709 6.97674 68.0232C6.97674 65.7755 8.79884 63.9535 11.0465 63.9535C13.2942 63.9535 15.1163 65.7755 15.1163 68.0232Z" fill="#3077F7"/>
<path d="M108.14 119.767H133.721V174.784L108.14 200V119.767Z" fill="#162C97"/>
<path d="M128.488 100H181.977L162.209 119.767H108.14L128.488 100Z" fill="#162C97"/>
<path d="M133.393 63.5214C127.158 55.0312 118.85 48.281 109.264 43.915C99.6779 39.549 89.1325 37.713 78.6347 38.5823C68.1369 39.4516 58.0372 42.9972 49.2997 48.8806C40.5621 54.764 33.4784 62.7888 28.7248 72.1889C23.9713 81.589 21.7064 92.0507 22.1466 102.575C22.5868 113.1 25.7172 123.336 31.2391 132.306C36.761 141.276 44.4901 148.682 53.6883 153.815C62.8866 158.948 73.2472 161.638 83.7809 161.628L83.7547 134.88C77.7929 134.886 71.9291 133.363 66.7231 130.458C61.517 127.553 57.1426 123.362 54.0173 118.285C50.892 113.207 49.1203 107.414 48.8711 101.458C48.622 95.5009 49.9038 89.5798 52.5943 84.2596C55.2847 78.9393 59.2939 74.3974 64.2392 71.0676C69.1844 67.7377 74.9006 65.731 80.8421 65.239C86.7836 64.7469 92.7521 65.7861 98.1777 68.2571C103.603 70.7282 108.305 74.5487 111.834 79.3539L133.393 63.5214Z" fill="#58C7FC"/>
<path d="M83.7207 118.605H102.325V161.628H83.7207V118.605Z" fill="#58C7FC"/>
<path d="M83.7207 100H120.349L101.163 119.767H64.5346L83.7207 100Z" fill="#58C7FC"/>
<path d="M119.186 59.3023L148.837 52.3256L116.86 84.8837L106.395 73.2558L119.186 59.3023Z" fill="#58C7FC"/>
</svg>
