<svg width="766" height="300" viewBox="0 0 766 300" fill="none" xmlns="http://www.w3.org/2000/svg">
<path d="M369.693 128.606C369.693 129.749 369.454 130.578 368.974 131.094C368.495 131.611 367.739 131.869 366.707 131.869C365.711 131.869 364.587 131.555 363.333 130.929C362.116 130.302 360.826 129.564 359.462 128.716C358.134 127.868 356.862 127.131 355.645 126.504C354.429 125.84 353.378 125.508 352.493 125.508C351.755 125.508 350.889 125.84 349.893 126.504C348.935 127.131 347.736 127.85 346.298 128.661C344.897 129.472 343.201 130.191 341.21 130.818C339.256 131.482 336.896 131.813 334.131 131.813C328.453 131.813 323.328 130.892 318.755 129.048C314.22 127.204 310.33 124.55 307.086 121.084C303.878 117.618 301.407 113.488 299.674 108.695C297.978 103.865 297.13 98.4448 297.13 92.4347C297.13 86.3878 298.126 80.8387 300.117 75.7873C302.108 70.699 304.91 66.2929 308.524 62.5689C312.137 58.8449 316.414 55.9689 321.355 53.941C326.296 51.8762 331.716 50.8438 337.615 50.8438C340.897 50.8438 343.588 51.1572 345.69 51.784C347.792 52.3739 349.469 53.0007 350.723 53.6644C352.013 54.2912 353.046 54.6046 353.82 54.6046C354.816 54.6046 355.811 54.3097 356.807 53.7197C357.802 53.0929 358.798 52.4845 359.793 51.8946C360.826 51.2678 361.821 50.9544 362.78 50.9544C363.407 50.9544 363.923 51.1756 364.329 51.618C364.734 52.0236 365.084 52.7795 365.379 53.8856L370.468 76.3957C370.689 77.2437 370.597 77.9811 370.191 78.6079C369.822 79.1979 369.251 79.6035 368.477 79.8247C367.665 80.0091 366.91 79.9537 366.209 79.6588C365.545 79.3269 364.992 78.7186 364.55 77.8336C362.264 72.4135 359.793 68.1733 357.139 65.113C354.484 62.0158 351.755 59.8404 348.953 58.5868C346.151 57.3331 343.33 56.7063 340.491 56.7063C336.693 56.7063 333.43 57.9415 330.702 60.4119C328.01 62.8454 325.945 66.4219 324.507 71.1415C323.069 75.861 322.35 81.6498 322.35 88.5079C322.35 96.1034 323.198 102.482 324.895 107.644C326.628 112.806 328.95 116.715 331.863 119.369C334.813 121.987 338.039 123.296 341.542 123.296C342.464 123.296 343.293 123.13 344.031 122.798C344.768 122.467 345.395 122.024 345.911 121.471C346.427 120.918 346.815 120.254 347.073 119.48C347.368 118.706 347.515 117.876 347.515 116.991V100.675C347.515 100.049 347.312 99.5509 346.907 99.1822C346.538 98.8135 345.838 98.5185 344.805 98.2973L341.708 97.6336C340.86 97.3755 340.196 97.0437 339.717 96.6381C339.274 96.2325 339.053 95.6979 339.053 95.0342C339.053 94.2967 339.311 93.7068 339.827 93.2643C340.381 92.8219 341.21 92.6007 342.316 92.6007H372.182C373.325 92.6007 374.155 92.8219 374.671 93.2643C375.187 93.7068 375.445 94.2783 375.445 94.9789C375.445 95.6057 375.261 96.1219 374.892 96.5275C374.56 96.8962 374.044 97.228 373.344 97.523L371.795 98.0208C371.131 98.2789 370.615 98.6107 370.246 99.0163C369.878 99.385 369.693 99.9381 369.693 100.675V128.606Z" fill="#58C7FC"/>
<path d="M405.735 99.9565C405.735 94.7208 406.473 90.3884 407.948 86.9593C409.423 83.4934 411.34 80.9124 413.7 79.2163C416.096 77.5202 418.677 76.6722 421.443 76.6722C425.019 76.6722 427.748 77.7783 429.628 79.9906C431.545 82.2029 432.504 85.5398 432.504 90.0012C432.504 94.5364 431.545 97.8733 429.628 100.012C427.711 102.15 425.259 103.22 422.272 103.22C419.323 103.22 417.129 102.464 415.691 100.952C414.29 99.4034 413.552 97.2465 413.478 94.4811L413.423 92.2135C413.386 91.3286 413.184 90.628 412.815 90.1118C412.483 89.5956 411.93 89.3375 411.156 89.3375C410.418 89.3375 409.773 89.6878 409.22 90.3884C408.667 91.0521 408.224 92.1398 407.892 93.6515C407.597 95.1632 407.45 97.1543 407.45 99.6247L405.735 99.9565ZM406.454 80.2672L407.45 93.8727V121.25C407.45 122.245 407.597 122.983 407.892 123.462C408.224 123.941 408.888 124.292 409.884 124.513L414.585 125.453C415.359 125.601 415.912 125.859 416.244 126.227C416.613 126.596 416.797 127.112 416.797 127.776C416.797 128.513 416.539 129.085 416.023 129.491C415.543 129.859 414.824 130.044 413.866 130.044H383.447C382.414 130.044 381.677 129.841 381.234 129.435C380.792 129.03 380.571 128.495 380.571 127.831C380.571 127.315 380.7 126.873 380.958 126.504C381.253 126.098 381.714 125.767 382.341 125.508L383.834 125.011C384.387 124.826 384.756 124.494 384.94 124.015C385.161 123.499 385.272 122.688 385.272 121.582V90.4437C385.272 89.5956 385.143 88.9873 384.885 88.6185C384.663 88.213 384.295 87.9549 383.779 87.8442L382.064 87.5677C381.548 87.4202 381.161 87.1806 380.903 86.8487C380.644 86.5169 380.515 86.0928 380.515 85.5766C380.515 84.9867 380.681 84.5074 381.013 84.1387C381.382 83.7699 382.009 83.4197 382.894 83.0878L398.214 78.442C399.984 77.7415 401.256 77.299 402.03 77.1147C402.804 76.9303 403.431 76.8381 403.91 76.8381C404.685 76.8381 405.256 77.1146 405.625 77.6677C406.03 78.1839 406.307 79.0504 406.454 80.2672Z" fill="#58C7FC"/>
<path d="M466.455 76.6722C472.354 76.6722 477.516 77.8336 481.941 80.1565C486.366 82.4794 489.813 85.7241 492.283 89.8906C494.791 94.0202 496.044 98.8135 496.044 104.27C496.044 109.432 494.735 114.06 492.117 118.153C489.536 122.245 485.96 125.49 481.388 127.887C476.816 130.246 471.543 131.426 465.57 131.426C459.671 131.426 454.49 130.265 450.029 127.942C445.604 125.619 442.138 122.411 439.631 118.318C437.161 114.189 435.925 109.414 435.925 103.994C435.925 98.7951 437.234 94.1493 439.852 90.0565C442.47 85.9269 446.065 82.6638 450.637 80.2672C455.209 77.8705 460.482 76.6722 466.455 76.6722ZM470.161 126.006C471.525 125.748 472.557 124.753 473.258 123.02C473.958 121.287 474.272 118.761 474.198 115.443C474.161 112.087 473.663 107.865 472.705 102.777C471.82 97.8364 470.806 93.799 469.663 90.6649C468.557 87.494 467.34 85.2079 466.012 83.8068C464.722 82.4057 463.358 81.8526 461.92 82.1476C460.556 82.4426 459.523 83.4565 458.823 85.1895C458.122 86.9224 457.809 89.4481 457.882 92.7666C457.993 96.0481 458.491 100.251 459.376 105.377C460.297 110.317 461.311 114.373 462.418 117.544C463.524 120.678 464.722 122.946 466.012 124.347C467.34 125.748 468.723 126.301 470.161 126.006Z" fill="#58C7FC"/>
<path d="M530.022 130.044H521.615C520.472 130.044 519.495 129.786 518.684 129.269C517.91 128.753 517.283 127.868 516.803 126.615L502.368 86.0191C502 84.9867 501.649 84.2861 501.317 83.9174C501.022 83.5487 500.672 83.2906 500.267 83.1431L498.718 82.5901C498.165 82.332 497.759 82.037 497.501 81.7051C497.28 81.3733 497.169 80.9308 497.169 80.3778C497.169 79.6772 497.409 79.1426 497.888 78.7739C498.405 78.3683 499.068 78.1655 499.879 78.1655H528.473C529.284 78.1655 529.93 78.3683 530.409 78.7739C530.925 79.1426 531.183 79.6772 531.183 80.3778C531.183 80.9308 531.017 81.3733 530.686 81.7051C530.391 82.037 529.911 82.3135 529.248 82.5348L527.312 82.9772C526.501 83.1984 526.003 83.6778 525.819 84.4152C525.671 85.1526 525.911 86.4431 526.538 88.2867L535.884 116.272L530.686 123.407L543.019 87.7336L547.72 90.499L534.778 127.002C534.299 128.182 533.635 128.993 532.787 129.435C531.939 129.841 531.017 130.044 530.022 130.044ZM566.137 130.044H557.897C556.791 130.044 555.813 129.786 554.965 129.269C554.154 128.753 553.546 127.868 553.14 126.615L539.258 86.0191C538.853 84.913 538.484 84.1755 538.152 83.8068C537.857 83.4381 537.544 83.18 537.212 83.0325L536.05 82.5901C535.497 82.332 535.092 82.037 534.834 81.7051C534.612 81.3733 534.502 80.9308 534.502 80.3778C534.502 78.9029 535.405 78.1655 537.212 78.1655H565.363C567.17 78.1655 568.073 78.9029 568.073 80.3778C568.073 80.9308 567.926 81.3917 567.631 81.7605C567.336 82.0923 566.912 82.332 566.359 82.4794L563.759 82.9772C562.764 83.1984 562.192 83.6778 562.045 84.4152C561.897 85.1526 562.118 86.4247 562.708 88.2314L571.613 116.327L566.746 123.407L576.922 90.1671C577.697 87.8074 577.955 86.0928 577.697 85.0236C577.475 83.9174 576.849 83.2353 575.816 82.9772L574.046 82.5348C573.383 82.3135 572.885 82.037 572.553 81.7051C572.258 81.3733 572.111 80.9308 572.111 80.3778C572.111 79.6772 572.35 79.1426 572.83 78.7739C573.346 78.3683 574.009 78.1655 574.821 78.1655H587.375C588.223 78.1655 588.887 78.3683 589.366 78.7739C589.846 79.1426 590.085 79.6772 590.085 80.3778C590.085 80.8571 589.956 81.2811 589.698 81.6498C589.477 82.0185 589.016 82.3135 588.316 82.5348L587.209 82.9772C586.435 83.2722 585.698 83.9727 584.997 85.0789C584.334 86.1482 583.651 87.7521 582.951 89.8906L570.839 127.002C570.47 128.182 569.825 128.993 568.903 129.435C568.018 129.841 567.096 130.044 566.137 130.044Z" fill="#58C7FC"/>
<path d="M311.234 166.47H354.041C355.332 166.47 356.42 166.323 357.305 166.028C358.226 165.733 359.038 165.456 359.738 165.198C360.475 164.903 361.158 164.756 361.784 164.756C362.743 164.756 363.481 165.014 363.997 165.53C364.513 166.046 364.937 166.95 365.269 168.24L368.808 188.206C368.993 189.091 368.937 189.81 368.643 190.363C368.348 190.916 367.831 191.266 367.094 191.414C366.43 191.561 365.822 191.506 365.269 191.248C364.753 190.99 364.292 190.492 363.886 189.755C361.563 184.666 359.517 180.813 357.747 178.195C355.977 175.541 354.3 173.734 352.714 172.775C351.129 171.817 349.451 171.337 347.681 171.337H343.035V235.991C343.035 236.692 343.257 237.263 343.699 237.706C344.178 238.111 344.842 238.443 345.69 238.701L348.732 239.42C350.022 239.826 350.668 240.6 350.668 241.743C350.668 243.181 349.746 243.9 347.902 243.9H317.483C316.525 243.9 315.824 243.716 315.382 243.347C314.939 242.942 314.718 242.407 314.718 241.743C314.718 240.6 315.363 239.826 316.654 239.42L319.696 238.701C320.581 238.443 321.226 238.111 321.631 237.706C322.074 237.263 322.295 236.692 322.295 235.991V171.337H317.705C315.972 171.337 314.312 171.853 312.727 172.886C311.178 173.881 309.501 175.707 307.694 178.361C305.887 180.979 303.804 184.777 301.444 189.755C301.076 190.492 300.615 190.99 300.062 191.248C299.545 191.506 298.956 191.561 298.292 191.414C297.554 191.266 297.038 190.916 296.743 190.363C296.448 189.81 296.374 189.091 296.522 188.206L300.117 168.24C300.412 166.95 300.818 166.046 301.334 165.53C301.85 165.014 302.606 164.756 303.601 164.756C304.228 164.756 304.873 164.903 305.537 165.198C306.238 165.456 307.049 165.733 307.971 166.028C308.892 166.323 309.98 166.47 311.234 166.47Z" fill="#162C97"/>
<path d="M396.599 191.137C402.241 191.137 407.2 192.28 411.477 194.566C415.754 196.852 419.091 200.042 421.488 204.134C423.921 208.227 425.138 212.965 425.138 218.348C425.138 223.473 423.884 228.064 421.377 232.12C418.87 236.176 415.422 239.384 411.035 241.743C406.684 244.066 401.632 245.228 395.88 245.228C390.239 245.228 385.28 244.085 381.003 241.799C376.726 239.476 373.389 236.286 370.992 232.23C368.596 228.175 367.397 223.473 367.397 218.127C367.397 212.928 368.632 208.301 371.103 204.245C373.61 200.189 377.058 197 381.445 194.677C385.833 192.317 390.884 191.137 396.599 191.137ZM400.194 240.527C402.112 240.195 403.623 239.125 404.73 237.319C405.836 235.475 406.481 232.839 406.665 229.41C406.85 225.981 406.518 221.741 405.67 216.689C404.822 211.712 403.734 207.637 402.407 204.466C401.116 201.258 399.604 198.954 397.871 197.553C396.175 196.115 394.332 195.562 392.341 195.894C390.423 196.189 388.912 197.258 387.806 199.101C386.736 200.945 386.109 203.581 385.925 207.01C385.778 210.403 386.128 214.624 386.976 219.676C387.787 224.617 388.856 228.691 390.184 231.899C391.511 235.106 393.023 237.429 394.719 238.867C396.415 240.268 398.24 240.822 400.194 240.527Z" fill="#162C97"/>
<path d="M466.866 238.314C472.471 239.015 476.914 239.992 480.195 241.246C483.477 242.462 485.818 244.029 487.219 245.947C488.657 247.901 489.376 250.316 489.376 253.192C489.376 258.428 486.648 262.705 481.191 266.023C475.771 269.342 467.954 271.001 457.741 271.001C450.883 271.001 445.426 270.503 441.37 269.507C437.351 268.512 434.475 267.129 432.742 265.359C431.009 263.59 430.142 261.543 430.142 259.22C430.142 256.344 431.433 253.929 434.014 251.975C436.595 250.058 441.167 248.73 447.73 247.993L448.172 249.265C446.698 249.634 445.555 250.316 444.743 251.311C443.969 252.344 443.582 253.468 443.582 254.685C443.582 258.299 444.854 261.175 447.398 263.313C449.979 265.488 454.201 266.576 460.064 266.576C463.345 266.576 465.981 266.318 467.972 265.802C470 265.286 471.457 264.493 472.342 263.424C473.263 262.354 473.724 261.045 473.724 259.497C473.724 258.17 473.227 257.026 472.231 256.068C471.236 255.146 469.521 254.316 467.088 253.579C464.654 252.878 461.225 252.215 456.8 251.588C451.638 250.814 447.638 249.966 444.799 249.044C441.96 248.122 439.969 246.997 438.826 245.67C437.719 244.343 437.166 242.72 437.166 240.803C437.166 238.996 437.664 237.337 438.66 235.825C439.692 234.314 441.388 233.06 443.748 232.065C446.145 231.032 449.408 230.368 453.537 230.073L454.09 230.848C453.316 231.143 452.708 231.511 452.265 231.954C451.86 232.396 451.657 232.894 451.657 233.447C451.657 234.037 451.952 234.572 452.542 235.051C453.169 235.53 454.551 236.028 456.69 236.544C458.828 237.061 462.22 237.651 466.866 238.314ZM467.198 195.728L468.581 192.575C470.314 188.482 472.471 185.348 475.052 183.173C477.633 180.998 480.527 179.91 483.735 179.91C486.39 179.91 488.491 180.666 490.04 182.177C491.589 183.652 492.363 185.68 492.363 188.261C492.363 190.547 491.791 192.372 490.648 193.737C489.505 195.101 487.938 195.783 485.947 195.783C484.62 195.783 483.569 195.47 482.795 194.843C482.02 194.216 481.338 193.497 480.748 192.686C480.158 191.838 479.513 191.1 478.813 190.474C478.149 189.847 477.264 189.533 476.158 189.533C474.941 189.533 473.909 190.013 473.061 190.971C472.25 191.893 471.328 193.534 470.295 195.894L467.198 195.728ZM485.173 210.661C485.173 214.753 484.048 218.385 481.799 221.556C479.55 224.69 476.379 227.161 472.286 228.967C468.231 230.737 463.493 231.622 458.072 231.622C452.615 231.622 447.914 230.774 443.969 229.078C440.061 227.345 437.056 225.022 434.954 222.109C432.889 219.196 431.857 215.97 431.857 212.43C431.857 208.301 432.981 204.651 435.231 201.48C437.48 198.272 440.669 195.765 444.799 193.958C448.928 192.151 453.814 191.248 459.455 191.248C464.912 191.248 469.539 192.133 473.337 193.903C477.172 195.636 480.103 197.977 482.131 200.927C484.159 203.839 485.173 207.084 485.173 210.661ZM456.081 195.285C454.57 195.433 453.334 196.17 452.376 197.498C451.454 198.788 450.864 200.65 450.606 203.084C450.348 205.48 450.459 208.393 450.938 211.822C451.417 215.288 452.118 218.219 453.04 220.616C453.998 222.976 455.123 224.727 456.413 225.87C457.741 227.013 459.197 227.511 460.783 227.363C463.069 227.105 464.672 225.575 465.594 222.773C466.553 219.971 466.664 215.989 465.926 210.827C465.189 205.554 463.953 201.59 462.22 198.936C460.524 196.244 458.478 195.027 456.081 195.285Z" fill="#162C97"/>
<path d="M544.784 212.652C544.784 214.2 544.341 215.417 543.456 216.302C542.571 217.15 541.299 217.574 539.64 217.574H505.682V213.979H524.265C525.74 213.979 526.477 213.279 526.477 211.877C526.477 206.31 525.74 202.236 524.265 199.655C522.79 197.037 520.946 195.728 518.734 195.728C517.038 195.728 515.526 196.336 514.199 197.553C512.871 198.733 511.821 200.558 511.046 203.028C510.309 205.462 509.94 208.577 509.94 212.375C509.94 219.528 511.507 224.838 514.641 228.304C517.812 231.77 522.052 233.503 527.362 233.503C530.607 233.503 533.409 232.82 535.769 231.456C538.128 230.092 539.861 228.119 540.968 225.538C541.521 224.948 541.963 224.561 542.295 224.377C542.627 224.156 542.94 224.045 543.235 224.045C543.678 224.045 544.009 224.266 544.231 224.709C544.452 225.114 544.562 225.63 544.562 226.257C544.489 229.723 543.401 232.894 541.299 235.77C539.198 238.646 536.34 240.951 532.727 242.684C529.15 244.38 525.021 245.228 520.338 245.228C515.102 245.228 510.438 244.158 506.345 242.02C502.289 239.844 499.1 236.821 496.777 232.949C494.454 229.041 493.293 224.487 493.293 219.289C493.293 213.647 494.399 208.725 496.611 204.522C498.823 200.281 502.013 196.981 506.179 194.622C510.346 192.262 515.323 191.082 521.112 191.082C526.127 191.082 530.385 192.022 533.888 193.903C537.428 195.746 540.119 198.29 541.963 201.535C543.843 204.78 544.784 208.485 544.784 212.652Z" fill="#162C97"/>
<path d="M553.209 197.166L550.223 196.281C549.596 196.06 549.135 195.801 548.84 195.506C548.582 195.175 548.453 194.788 548.453 194.345C548.453 193.755 548.656 193.294 549.061 192.962C549.504 192.631 550.057 192.465 550.721 192.465H554.426C555.016 192.465 555.514 192.354 555.919 192.133C556.362 191.875 556.878 191.414 557.468 190.75L567.147 181.182C567.847 180.445 568.529 179.891 569.193 179.523C569.857 179.117 570.484 178.914 571.074 178.914C571.737 178.914 572.254 179.136 572.622 179.578C573.028 180.02 573.231 180.666 573.231 181.514V227.253C573.231 230.092 573.747 232.23 574.779 233.668C575.812 235.106 577.268 235.825 579.148 235.825C580.255 235.825 581.158 235.586 581.859 235.106C582.559 234.627 583.149 234.056 583.628 233.392C584.108 232.691 584.569 232.009 585.011 231.346C585.49 230.645 586.025 230.055 586.615 229.576C587.057 229.502 587.426 229.613 587.721 229.908C588.016 230.166 588.164 230.682 588.164 231.456C587.942 234.148 587.113 236.526 585.675 238.591C584.274 240.619 582.338 242.223 579.867 243.403C577.434 244.546 574.576 245.117 571.295 245.117C566.133 245.117 562.132 243.882 559.293 241.411C556.454 238.904 555.035 235.088 555.035 229.963V199.71C555.035 198.936 554.887 198.382 554.592 198.051C554.334 197.682 553.873 197.387 553.209 197.166ZM566.926 197.11L567.147 192.465H585.619C586.357 192.465 586.91 192.612 587.279 192.907C587.684 193.165 587.887 193.589 587.887 194.179C587.887 194.99 587.463 195.691 586.615 196.281C585.804 196.834 584.476 197.11 582.633 197.11H566.926Z" fill="#162C97"/>
<path d="M616.244 163.981V236.213C616.244 237.245 616.373 238.001 616.631 238.48C616.889 238.959 617.295 239.291 617.848 239.476L619.784 240.029C620.669 240.434 621.111 241.043 621.111 241.854C621.111 243.218 620.281 243.9 618.622 243.9H595.061C594.213 243.9 593.587 243.734 593.181 243.403C592.775 243.034 592.573 242.554 592.573 241.965C592.573 241.522 592.702 241.135 592.96 240.803C593.218 240.471 593.642 240.213 594.232 240.029L596.223 239.476C596.813 239.291 597.218 238.959 597.44 238.48C597.698 238.001 597.827 237.245 597.827 236.213V173.162C597.827 172.425 597.698 171.89 597.44 171.558C597.218 171.19 596.85 170.969 596.333 170.895L593.955 170.674C593.439 170.563 593.052 170.36 592.794 170.065C592.573 169.77 592.462 169.402 592.462 168.959C592.462 168.443 592.609 168.037 592.904 167.742C593.199 167.447 593.752 167.152 594.564 166.857L608.446 162.267C609.626 161.824 610.566 161.511 611.266 161.327C611.967 161.142 612.631 161.05 613.257 161.05C614.253 161.05 614.99 161.327 615.47 161.88C615.986 162.433 616.244 163.133 616.244 163.981ZM614.585 206.623L612.483 204.411L614.474 202.641C618.972 198.548 622.844 195.617 626.089 193.847C629.37 192.041 632.412 191.137 635.214 191.137C639.381 191.137 642.626 192.501 644.948 195.23C647.308 197.958 648.728 201.738 649.207 206.568L652.47 236.102C652.581 237.171 652.728 237.964 652.913 238.48C653.134 238.959 653.539 239.291 654.129 239.476L656.01 240.029C656.6 240.25 657.005 240.527 657.227 240.858C657.485 241.153 657.614 241.522 657.614 241.965C657.614 242.554 657.411 243.034 657.005 243.403C656.637 243.734 656.028 243.9 655.18 243.9H631.288C629.591 243.9 628.743 243.218 628.743 241.854C628.743 241.043 629.204 240.434 630.126 240.029L632.117 239.476C632.707 239.291 633.15 238.959 633.445 238.48C633.74 237.964 633.832 237.171 633.721 236.102L630.956 208.946C630.661 206.328 630.015 204.374 629.02 203.084C628.061 201.793 626.568 201.148 624.54 201.148C623.286 201.148 621.996 201.461 620.669 202.088C619.341 202.715 617.995 203.618 616.631 204.798L614.585 206.623Z" fill="#162C97"/>
<path d="M712.001 212.652C712.001 214.2 711.559 215.417 710.674 216.302C709.789 217.15 708.517 217.574 706.858 217.574H672.899V213.979H691.482C692.957 213.979 693.695 213.279 693.695 211.877C693.695 206.31 692.957 202.236 691.482 199.655C690.008 197.037 688.164 195.728 685.952 195.728C684.256 195.728 682.744 196.336 681.417 197.553C680.089 198.733 679.038 200.558 678.264 203.028C677.527 205.462 677.158 208.577 677.158 212.375C677.158 219.528 678.725 224.838 681.859 228.304C685.03 231.77 689.27 233.503 694.58 233.503C697.824 233.503 700.627 232.82 702.986 231.456C705.346 230.092 707.079 228.119 708.185 225.538C708.738 224.948 709.181 224.561 709.513 224.377C709.844 224.156 710.158 224.045 710.453 224.045C710.895 224.045 711.227 224.266 711.448 224.709C711.67 225.114 711.78 225.63 711.78 226.257C711.706 229.723 710.619 232.894 708.517 235.77C706.415 238.646 703.558 240.951 699.944 242.684C696.368 244.38 692.238 245.228 687.556 245.228C682.32 245.228 677.656 244.158 673.563 242.02C669.507 239.844 666.318 236.821 663.995 232.949C661.672 229.041 660.51 224.487 660.51 219.289C660.51 213.647 661.617 208.725 663.829 204.522C666.041 200.281 669.231 196.981 673.397 194.622C677.564 192.262 682.541 191.082 688.33 191.082C693.344 191.082 697.603 192.022 701.106 193.903C704.646 195.746 707.337 198.29 709.181 201.535C711.061 204.78 712.001 208.485 712.001 212.652Z" fill="#162C97"/>
<path d="M739.785 214.532C739.785 209.333 740.522 205.001 741.997 201.535C743.472 198.032 745.389 195.433 747.749 193.737C750.146 192.004 752.69 191.137 755.381 191.137C758.81 191.137 761.428 192.17 763.235 194.234C765.078 196.262 766 199.267 766 203.25C766 207.084 765.189 209.923 763.567 211.767C761.944 213.574 759.861 214.477 757.317 214.477C754.81 214.477 752.929 213.813 751.676 212.486C750.459 211.158 749.832 209.296 749.795 206.9L749.74 204.798C749.703 203.766 749.463 202.991 749.021 202.475C748.615 201.922 747.933 201.646 746.975 201.646C745.979 201.646 745.057 202.088 744.209 202.973C743.361 203.858 742.679 205.241 742.163 207.121C741.647 208.965 741.389 211.361 741.389 214.311L739.785 214.532ZM740.614 194.345L741.389 208.448V236.047C741.389 236.968 741.554 237.669 741.886 238.148C742.218 238.591 742.845 238.886 743.767 239.033L748.634 239.918C749.334 240.066 749.832 240.305 750.127 240.637C750.459 240.932 750.625 241.375 750.625 241.965C750.625 242.554 750.404 243.034 749.961 243.403C749.556 243.734 748.929 243.9 748.081 243.9H720.206C719.358 243.9 718.731 243.734 718.325 243.403C717.92 243.034 717.717 242.554 717.717 241.965C717.717 241.522 717.846 241.135 718.104 240.803C718.362 240.471 718.786 240.213 719.376 240.029L721.367 239.476C721.92 239.291 722.308 238.978 722.529 238.535C722.787 238.056 722.916 237.319 722.916 236.323V203.305C722.916 202.531 722.805 201.977 722.584 201.646C722.363 201.277 721.994 201.056 721.478 200.982L719.044 200.761C718.528 200.65 718.141 200.447 717.883 200.152C717.662 199.857 717.551 199.489 717.551 199.046C717.551 198.53 717.699 198.124 717.994 197.829C718.325 197.498 718.879 197.184 719.653 196.889L733.424 192.686C734.936 192.133 736.024 191.782 736.687 191.635C737.388 191.451 737.96 191.358 738.402 191.358C739.066 191.358 739.563 191.598 739.895 192.077C740.227 192.52 740.467 193.276 740.614 194.345Z" fill="#162C97"/>
<path d="M0 65.9918L148.217 0.261719L152.638 10.2309L4.42104 75.961L0 65.9918Z" fill="#3077F7"/>
<path d="M33.1932 61.4995L119.458 23.2437L132.208 51.9954C132.208 51.9954 113.175 47.5458 85.3164 59.4608C60.0697 70.2588 45.9438 90.2512 45.9438 90.2512L33.1932 61.4995Z" fill="#3077F7"/>
<path d="M13.9292 69.9077H19.1527V107.342L21.7644 115.178H11.3175L13.9292 107.342V69.9077Z" fill="#3077F7"/>
<path d="M22.635 102.119C22.635 105.485 19.9066 108.213 16.5409 108.213C13.1753 108.213 10.4469 105.485 10.4469 102.119C10.4469 98.7534 13.1753 96.025 16.5409 96.025C19.9066 96.025 22.635 98.7534 22.635 102.119Z" fill="#3077F7"/>
<path d="M161.927 179.601H200.232V261.982L161.927 299.74V179.601Z" fill="#162C97"/>
<path d="M192.397 150.001H272.49L242.89 179.601H161.927L192.397 150.001Z" fill="#162C97"/>
<path d="M199.74 95.3781C190.404 82.665 177.965 72.5572 163.611 66.0196C149.256 59.482 133.466 56.7328 117.746 58.0345C102.027 59.3363 86.9039 64.6454 73.8204 73.4551C60.7369 82.2648 50.1298 94.2811 43.0118 108.357C35.8939 122.432 32.5026 138.098 33.1617 153.857C33.8208 169.616 38.5083 184.943 46.7767 198.376C55.0452 211.808 66.6185 222.896 80.3919 230.583C94.1654 238.269 109.679 242.297 125.452 242.282L125.413 202.23C116.486 202.238 107.705 199.959 99.91 195.608C92.1145 191.258 85.5643 184.982 80.8845 177.38C76.2048 169.778 73.5518 161.103 73.1787 152.183C72.8057 143.264 74.7251 134.398 78.7537 126.431C82.7823 118.465 88.7857 111.664 96.1906 106.678C103.596 101.692 112.155 98.6867 121.052 97.9499C129.949 97.2132 138.886 98.7692 147.01 102.469C155.134 106.169 162.174 111.89 167.459 119.086L199.74 95.3781Z" fill="#58C7FC"/>
<path d="M125.362 177.859H153.221V242.282H125.362V177.859Z" fill="#58C7FC"/>
<path d="M125.362 150.001H180.208L151.479 179.6H96.6331L125.362 150.001Z" fill="#58C7FC"/>
<path d="M178.467 89.0605L222.867 78.6136L174.985 127.366L159.315 109.954L178.467 89.0605Z" fill="#58C7FC"/>
</svg>
